PathFileType	4	(X/Y/Z)	C:\Users\WrightLab\Desktop\Jo\P4V17.trc
DataRate	CameraRate	NumFrames	NumMarkers	Units	OrigDataRate	OrigDataStartFrame	OrigNumFrames
100.00	100.00	       15	19	mm	100.00	466	       744
Frame#	Time	Headset_Front			Headset_Back			Headset_Left			Headset_Right			Left_Shoulder			Right_Shoulder			Sternum			C7			Left Elbow			Right Elbow			Left Wrist			Right Wrist			Left ASIS			Right ASIS			S2			Left Knee			Right Knee			Left Ankle			Right Ankle			
		X1	Y1	Z1	X2	Y2	Z2	X3	Y3	Z3	X4	Y4	Z4	X5	Y5	Z5	X6	Y6	Z6	X7	Y7	Z7	X8	Y8	Z8	X9	Y9	Z9	X10	Y10	Z10	X11	Y11	Z11	X12	Y12	Z12	X13	Y13	Z13	X14	Y14	Z14	X15	Y15	Z15	X16	Y16	Z16	X17	Y17	Z17	X18	Y18	Z18	X19	Y19	Z19	

466	4.650	143.71664	1639.86255	828.98956							29.77035	1695.85071	745.15173	242.41135	1538.00879	517.36438	-37.92759	1555.95276	643.11926	154.69702	1484.13806	677.51654	87.12130	1584.24060	537.12305	370.82352	1188.70447	434.28693	-190.00912	1223.71558	722.06555	429.52878	911.57611	567.10773	-114.67749	978.38959	883.65326	233.19250	1054.00854	578.96051	-21.29401	1061.39026	792.27881	2.13189	1073.24939	529.91522	260.96100	571.36792	554.57916	33.97515	615.98627	916.82336	185.80708	71.66758	491.82147	-28.06508	214.33167	604.26563	
467	4.660	147.28906	1640.87744	837.26593							34.64256	1696.26367	752.06403	249.47232	1538.18909	528.62927	-32.26889	1556.16565	650.16907	160.01346	1484.54761	685.68121	93.63938	1584.58154	544.96210	381.12247	1189.43506	446.59424	-185.57605	1224.10010	726.01111	439.26160	913.57098	580.56677	-112.29411	978.19385	888.34814	241.05052	1054.72437	587.95325	-15.89136	1062.07129	798.76123	8.49530	1073.91455	537.45447	261.88867	571.25342	556.79315	42.01722	619.45703	927.08344	185.56628	72.08302	492.24628	-4.60195	204.31851	625.08734	
468	4.670	151.03159	1641.48413	845.48285							39.62592	1696.12756	759.10754	255.26016	1538.17078	537.24426	-26.84037	1556.10803	657.36798	165.12148	1484.52307	694.29541	99.90770	1584.74060	552.90094	390.29498	1190.13306	458.21564	-181.52492	1224.03564	730.26917	450.61942	915.49878	595.19147	-110.49003	979.03870	893.31110	246.23357	1054.88892	593.54462	-10.72439	1062.60828	805.76160	14.10282	1074.16138	544.82587	262.84778	571.32715	559.39703	49.07557	622.23657	936.61749	185.42082	72.35446	492.34930	18.08606	194.06749	647.02228	
469	4.680	154.47302	1642.20813	853.79529							44.31086	1695.72388	766.30554	261.90619	1538.52942	546.22101	-21.58224	1556.33655	664.48749	169.77135	1484.26611	703.19287	106.02025	1584.85278	560.87244	400.26859	1190.74084	471.50165	-177.30409	1223.89807	734.88702	460.14496	917.31207	609.58667	-108.40913	977.43256	896.90070	251.05238	1055.01208	599.87604	-5.21860	1062.01990	812.65961	19.35764	1074.62769	552.06659	263.85699	570.87695	562.23175	56.53697	623.62134	945.80090	185.55933	73.09808	492.40860	39.81741	184.24554	670.25433	
470	4.690	158.16933	1642.28796	862.15161							46.87894	1696.44629	773.93304	268.08694	1538.21484	554.82275	-16.33997	1556.41284	671.57214	174.71761	1483.82935	711.90973	111.90802	1584.65857	569.00195	408.89090	1190.95325	484.21274	-173.19904	1223.62744	739.20813	471.13461	918.53003	624.76666	-106.77649	976.09320	901.47699	256.76016	1054.81067	608.47156	-0.34866	1062.13281	819.76263	24.72014	1074.95618	559.07025	264.89148	570.67621	564.72675	63.31163	624.67572	953.68665	185.28488	73.05491	493.01038	62.02877	173.70360	693.72424	
471	4.700	161.63631	1642.28992	870.58752							51.58821	1695.75671	781.31555	273.62363	1537.62134	564.82404	-11.16338	1555.48608	679.45972	179.16364	1483.44189	720.30286				418.48099	1191.27942	496.98788	-168.91864	1223.36499	744.39148	480.27124	919.94293	638.94287	-105.44696	975.35248	906.27356	262.55820	1054.78699	616.86896	4.58142	1061.28809	826.30371	30.39597	1075.22192	566.48370	265.98849	570.52600	568.09125	69.20000	625.52466	961.65192	184.98283	73.32143	493.41245	82.71786	163.32899	718.82410	
472	4.710	165.08476	1642.24280	879.01630							55.62822	1695.23438	788.84021	279.16333	1536.86157	574.63495	-6.14908	1555.37915	686.82709	183.74113	1482.98364	729.01910				426.99924	1191.71191	509.39841	-164.41925	1222.30225	748.99524	489.84406	921.77838	653.64026	-104.27336	973.88733	911.72943	266.82388	1053.35876	622.91351	8.73240	1060.26086	833.53900	36.06267	1074.69580	574.07532	266.04745	570.89746	570.91846	73.95174	626.29877	970.77313	185.08287	73.55752	493.78229	103.33743	152.78201	744.44171	
473	4.720	168.54314	1641.73230	887.51373							59.38437	1694.77112	796.50037	284.32465	1536.89294	583.52911	-1.61958	1554.64807	694.68622	188.34818	1481.89844	737.76965				435.27817	1191.91174	523.19476	-160.36511	1221.68469	754.41736	499.49490	922.59698	668.40234	-101.58292	971.26031	916.54327	272.51480	1053.17444	632.63281	13.19958	1059.00024	840.25079	41.84717	1074.31616	581.28949	266.56702	570.47742	573.76282	79.45753	625.78186	977.57275	185.08884	73.63374	493.85376	122.88838	142.63702	769.97424	
474	4.730	171.32224	1641.62476	896.22681							63.06353	1694.14209	804.25635	289.44608	1536.10461	592.17029	2.77186	1553.84412	702.55792	192.73062	1481.07129	746.75708				442.36469	1191.78784	536.03705	-156.44550	1220.67102	760.01971	508.69931	923.20673	683.86548	-100.59087	969.45258	921.32288	278.09171	1052.96545	641.59509	16.84617	1057.55212	847.53546	48.07981	1073.55933	588.80646	267.43375	569.67297	577.99982	84.91978	623.82166	983.15063	184.82365	74.08344	494.27905	140.33365	133.99046	796.78046	
475	4.740	174.72899	1641.06177	904.98145							67.10731	1693.30994	812.21735	294.29037	1534.69800	603.86328	6.79728	1552.70667	710.83997	196.52805	1480.04065	755.60498				450.23993	1191.56152	548.65118	-152.13499	1219.41809	765.66553	517.73242	925.82861	698.49268	-99.14433	967.20038	926.74402	283.20316	1051.68628	650.99072	20.76211	1055.98901	854.44794	53.32821	1072.41748	596.34155	270.04092	570.66382	580.56689	91.00258	621.46887	987.72125	184.91684	74.14795	494.57394	158.42441	124.97777	823.40601	
476	4.750	177.97101	1640.51489	913.78162							69.49258	1692.68958	820.54291	298.82962	1533.80847	612.17090	10.83887	1551.63647	718.93567	200.35962	1478.87891	764.74237				456.67810	1191.50708	561.64471	-148.21675	1217.58606	772.07544	526.56915	926.56689	712.94141	-98.05614	964.59613	931.81238	287.81473	1050.78809	660.67059	24.96206	1054.02478	861.84723	59.41147	1071.61365	603.58521	271.34790	570.63922	583.99487	96.43272	619.19702	992.67236	184.88069	74.34676	494.73035	175.06233	116.36224	850.79449	
477	4.760	180.84886	1640.03845	922.78210							73.36510	1691.81567	828.80658	303.03229	1532.24719	621.93182	14.58484	1550.23535	727.36572	203.43015	1477.77808	774.43781				463.77029	1191.34485	574.85693	-144.57683	1215.96313	778.38580	532.65302	926.72290	726.57397	-96.41057	961.78021	937.91614	293.77747	1049.87854	670.04639	28.51273	1052.09766	869.08545	65.71110	1070.23816	611.33087	272.88565	570.09357	588.26306	101.45476	615.80798	997.06451	184.94748	74.29636	494.91522	190.44763	109.18349	878.71295	
478	4.770	182.99834	1639.44983	931.90131							75.33163	1691.30029	837.38574	307.21799	1531.53381	632.12415	17.93546	1548.59448	735.94360	207.20419	1476.24536	783.51563				469.70178	1190.79138	587.13123	-141.03793	1213.88843	785.20398	540.77393	927.61798	741.67963	-94.94330	958.49976	944.07062	298.91507	1048.84229	678.74200	31.63551	1049.85437	877.03314	71.09550	1069.64722	619.06378	275.31079	570.38556	592.86432	106.10384	612.35394	1000.86060	185.19310	74.50300	495.12216	206.48740	101.79826	906.14752	
479	4.780	185.07368	1638.69373	941.09515							78.92803	1689.85071	845.97699	311.26416	1530.27576	643.34619	21.54581	1546.59070	744.55365	210.16397	1474.98962	793.38312				475.86481	1190.63953	600.09912	-137.21318	1211.55542	791.91650	549.30914	930.36768	758.24176	-93.84212	955.23865	949.28253	304.37283	1047.66943	689.71527	35.53049	1047.66614	885.08783	77.09155	1068.38513	626.80444	278.09991	570.28241	597.73236	110.72354	607.99420	1004.75336	184.85081	75.09023	495.36166	219.42441	96.01289	934.03320	
480	4.790	188.28748	1637.93140	950.17236							81.00262	1689.21143	854.68042	314.65082	1529.33325	652.06647	24.34667	1544.80945	753.29456	213.44273	1473.52942	803.07544	160.37177	1575.02136	654.89392	481.87616	1190.12976	612.92493	-133.87624	1209.12244	799.06848	556.51971	931.58899	773.93085	-92.60826	951.85016	955.78027	309.40015	1046.34094	699.03223	39.63474	1045.16162	893.17981	82.96596	1067.09583	635.16504	280.96954	570.00952	602.69824	114.89603	603.95770	1009.33698	184.91373	75.88117	495.80121	231.36676	92.63338	961.86700	
